<svg id="Layer_1" data-name="Layer 1" xmlns="http://www.w3.org/2000/svg" viewBox="0 0 19.62 16"><defs><style>.cls-1{fill:#666;}</style></defs><title>icon_twitter</title><path class="cls-1" d="M6.25,16A11.22,11.22,0,0,0,17.56,4.87V4.09a7.89,7.89,0,0,0,2-2.08,8.58,8.58,0,0,1-2.28.6A4.29,4.29,0,0,0,19,.42a7.65,7.65,0,0,1-2.48,1A3.94,3.94,0,0,0,11,.91h0A4,4,0,0,0,9.72,5.19,11.1,11.1,0,0,1,1.49.92,4,4,0,0,0,2.68,6.28a4,4,0,0,1-1.79-.5h0a4,4,0,0,0,3.17,4,3.64,3.64,0,0,1-1.79.1,3.93,3.93,0,0,0,3.67,2.78,8.1,8.1,0,0,1-5,1.69,3.38,3.38,0,0,1-1-.1A12,12,0,0,0,6.25,16" transform="translate(0.06 0)"/></svg>
