<svg id="Layer_1" data-name="Layer 1" xmlns="http://www.w3.org/2000/svg" viewBox="0 0 19.54 16"><defs><style>.cls-1{fill:#333;}</style></defs><title>icon_twitter_hover</title><path class="cls-1" d="M6.43,16A11.22,11.22,0,0,0,17.74,4.79V4.09a7.89,7.89,0,0,0,2-2.08,8.58,8.58,0,0,1-2.28.6A4.29,4.29,0,0,0,19.23.42a7.65,7.65,0,0,1-2.48,1,3.94,3.94,0,0,0-5.56-.5A4,4,0,0,0,9.9,5.19,11.1,11.1,0,0,1,1.67.92,4,4,0,0,0,2.86,6.28a4,4,0,0,1-1.79-.5h0a4,4,0,0,0,3.17,4,3.64,3.64,0,0,1-1.79.1,3.93,3.93,0,0,0,3.67,2.78,8.1,8.1,0,0,1-5,1.69,3.38,3.38,0,0,1-1-.1A12,12,0,0,0,6.43,16" transform="translate(-0.18)"/></svg>
